# xmcd
#
# Track frame offsets: 
#        150
#        9175
#        33722
#        52030
#        66345
#        85105
#        102992
#        108565
#        131005
#        144782
#        165257
#        178412
#        199955
#        218557
#        235727
#        249255
#        274530
#        288105
#        301790
#        318117
#
# Disc length: 4324 seconds
#
# Revision: 2
# Processed by: cddbd v1.5.2PL0 Copyright (c) Steve Scherf et al.
# Submitted via: ExactAudioCopyFreeDBPlugin 1.0
#
DISCID=0d10e214
DTITLE=Beatfabrik - WortShots
DYEAR=2001
DGENRE=Rap
TTITLE0=Vorschuss
TTITLE1=Beatfabrik
TTITLE2=Starker Hass
TTITLE3=20.000 Meilen Remix
TTITLE4=Du Hure
TTITLE5=Täglich
TTITLE6=Koph
TTITLE7=Sezierte Psyche
TTITLE8=Mond
TTITLE9=Troopercars
TTITLE10=Safari
TTITLE11=Bonnys Ranch 2
TTITLE12=Salz
TTITLE13=BeatfabrikDiablow
TTITLE14=Produkt der Fabrik
TTITLE15=Madraps
TTITLE16=SMX
TTITLE17=Falscher Ort
TTITLE18=Samurai
TTITLE19=Ausweg
EXTD=jjjjj
EXTT0=
EXTT1=
EXTT2=
EXTT3=
EXTT4=
EXTT5=
EXTT6=
EXTT7=
EXTT8=
EXTT9=
EXTT10=
EXTT11=
EXTT12=
EXTT13=
EXTT14=
EXTT15=
EXTT16=
EXTT17=
EXTT18=
EXTT19=
PLAYORDER=
